# xmcd
#
# Track frame offsets:
#	150
#	15695
#	28890
#	41302
#	52657
#	67599
#	86756
#	100257
#	116492
#	130777
#	150311
#	168401
#	179504
#	193478
#	210989
#	226265
#	239173
#	253745
#	263192
#	278245
#	293424
#	311152
#	326385
#	338442
#
# Disc length: 4658 seconds
#
# Revision: 1
# Processed by: cddbd v1.5.1PL0 Copyright (c) Steve Scherf et al.
# Submitted via: CDex 1.50Beta5
#
DISCID=47123018
DTITLE=赤い鳥 - 赤い鳥ゴールデン☆ベスト
DYEAR=1900
DGENRE=Folk
TTITLE0=翼をください
TTITLE1=誰のために
TTITLE2=小さな歴史
TTITLE3=忘れていた朝
TTITLE4=河
TTITLE5=美しくも哀しい人生
TTITLE6=赤い花 白い花
TTITLE7=赤い屋根の家
TTITLE8=二人
TTITLE9=白い墓
TTITLE10=紙風船
TTITLE11=美しい星
TTITLE12=まつり
TTITLE13=みちくさ
TTITLE14=窓に明かりがともる時
TTITLE15=雨
TTITLE16=虹を歌おう
TTITLE17=祈り
TTITLE18=風は恋人
TTITLE19=僕のうた
TTITLE20=ラブレター
TTITLE21=さりげなく
TTITLE22=雨の日暮れ
TTITLE23=I Would Give You Anything
EXTD=
EXTT0=
EXTT1=
EXTT2=
EXTT3=
EXTT4=
EXTT5=
EXTT6=
EXTT7=
EXTT8=
EXTT9=
EXTT10=
EXTT11=
EXTT12=
EXTT13=
EXTT14=
EXTT15=
EXTT16=
EXTT17=
EXTT18=
EXTT19=
EXTT20=
EXTT21=
EXTT22=
EXTT23=
PLAYORDER=
